<svg width="512" height="512" viewBox="0 0 512 512" fill="none" xmlns="http://www.w3.org/2000/svg">
<g clip-path="url(#clip0_102_3)">
<path d="M37.9 272.9C-11.4 192.7 13.5 87.7 93.7 38.4C173.9 -10.9 278.8 14 328.2 94.2C345.2 121.8 353.9 153.6 353.5 186C350.5 280.2 272.7 354.8 178.4 353.9H21.1L37.7 325.8C47.6 309.5 47.6 289.2 37.9 272.9V272.9Z" fill="white"/>
<path d="M474.3 419C523.6 338.8 498.6 233.8 418.4 184.5C398.1 172 375.4 163.9 351.8 160.8C353 169.2 353.6 177.6 353.5 186C350.5 280.2 272.7 354.8 178.4 353.9H160.6C174.5 438.6 247.9 500.5 333.7 500H491.1L474.5 471.9C464.7 455.6 464.6 435.3 474.3 419Z" fill="#A56FFD" fill-opacity="0.3" classname='theme'/>
<path d="M485 465.6C477.5 453.2 477.5 437.8 485 425.4C537.8 339.5 511 227 425.1 174.2C406.1 162.5 385.1 154.4 363.2 150.3C356.1 112 337 77 308.7 50.3C271.2 14.4 220.1 -3.59998 168.4 0.700019C67.9 8.60002 -7.29997 96.5 0.600029 197C2.90003 226.1 12.1 254.3 27.5 279.1C35 291.5 35 306.9 27.5 319.3L10.6 347.5C7.20003 353.3 9.10003 360.8 14.9 364.2C16.8 365.3 18.9 365.9 21.1 365.9H150.6C169.7 451.4 245.6 512.1 333.2 512H491.1C497.8 512 503.3 506.5 503.3 499.8C503.3 497.6 502.7 495.5 501.6 493.6L485 465.6V465.6ZM42.5 341.6L48.3 331.7C60.4 311.6 60.4 286.4 48.3 266.3C2.50003 191.9 25.7 94.4 100.1 48.6C174.5 2.80003 272.1 26.1 317.9 100.5C333.7 126.1 341.8 155.6 341.4 185.7C338.5 273.3 266.2 342.6 178.5 341.7H42.5V341.6V341.6ZM333.8 487.7C259.4 488.1 194.2 438 175.5 366H178.4C279.3 366.8 362.5 287 365.6 186.1V175.5C450.7 195.5 503.5 280.7 483.5 365.8C479.6 382.3 473.1 398.1 464.2 412.6C452.1 432.7 452.1 457.9 464.2 478L470 487.9L333.8 487.7V487.7Z" fill="#A56FFD"  classname='theme'/>
<path d="M196.6 154C196.6 166.2 185.2 174 155.8 175.2L154.6 176.4L160 214.1H184.3L186.9 199.9C211.7 195.5 231.8 183.3 231.8 153.5C231.8 122.6 209 104.8 175.4 104.8C153.6 104.3 132.7 113.5 118.4 130L139.8 153.5C148.7 143.5 161.4 137.7 174.7 137.4C188.7 137.5 196.6 143.6 196.6 154V154ZM152.3 232.6H190V269.9H152.3V232.6Z" fill="#A56FFD"  classname='theme'/>
</g>
<defs>
<clipPath id="clip0_102_3">
<rect width="512" height="512" fill="white"/>
</clipPath>
</defs>
</svg>
