<svg width="1032" height="742" viewBox="0 0 1032 742" fill="none" xmlns="http://www.w3.org/2000/svg">
<g clip-path="url(#clip0_216_87)">
<path d="M0 741.253H166" stroke="#3F3D56" stroke-miterlimit="10"/>
<path d="M960.602 127.753H262.398C251.685 127.753 243 136.438 243 147.151V607.355C243 618.068 251.685 626.753 262.398 626.753H960.602C971.315 626.753 980 618.068 980 607.355V147.151C980 136.438 971.315 127.753 960.602 127.753Z" fill="#F2F2F2"/>
<path d="M938.102 96.2531H239.898C229.185 96.2531 220.5 104.938 220.5 115.651V575.855C220.5 586.568 229.185 595.253 239.898 595.253H938.102C948.815 595.253 957.5 586.568 957.5 575.855V115.651C957.5 104.938 948.815 96.2531 938.102 96.2531Z" stroke="#3F3D56" stroke-miterlimit="10"/>
<path d="M220.5 144.093H957.5" stroke="#3F3D56" stroke-miterlimit="10"/>
<path opacity="0.3" d="M854.907 256.253H668.093C664.176 256.253 661 259.429 661 263.346V280.16C661 284.077 664.176 287.253 668.093 287.253H854.907C858.824 287.253 862 284.077 862 280.16V263.346C862 259.429 858.824 256.253 854.907 256.253Z" fill="#A56FFD"/>
<path opacity="0.3" d="M893.407 342.253H629.593C625.676 342.253 622.5 345.429 622.5 349.346V360.16C622.5 364.077 625.676 367.253 629.593 367.253H893.407C897.324 367.253 900.5 364.077 900.5 360.16V349.346C900.5 345.429 897.324 342.253 893.407 342.253Z" fill="#A56FFD"/>
<path opacity="0.3" d="M893.407 410.253H629.593C625.676 410.253 622.5 413.429 622.5 417.346V428.16C622.5 432.077 625.676 435.253 629.593 435.253H893.407C897.324 435.253 900.5 432.077 900.5 428.16V417.346C900.5 413.429 897.324 410.253 893.407 410.253Z" fill="#A56FFD"/>
<path opacity="0.3" d="M893.407 478.253H629.593C625.676 478.253 622.5 481.429 622.5 485.346V496.16C622.5 500.077 625.676 503.253 629.593 503.253H893.407C897.324 503.253 900.5 500.077 900.5 496.16V485.346C900.5 481.429 897.324 478.253 893.407 478.253Z" fill="#A56FFD"/>
<path d="M864.907 246.253H678.093C674.176 246.253 671 249.429 671 253.346V270.16C671 274.077 674.176 277.253 678.093 277.253H864.907C868.824 277.253 872 274.077 872 270.16V253.346C872 249.429 868.824 246.253 864.907 246.253Z" stroke="#3F3D56" stroke-miterlimit="10"/>
<path d="M903.407 332.253H639.593C635.676 332.253 632.5 335.429 632.5 339.346V350.16C632.5 354.077 635.676 357.253 639.593 357.253H903.407C907.324 357.253 910.5 354.077 910.5 350.16V339.346C910.5 335.429 907.324 332.253 903.407 332.253Z" stroke="#3F3D56" stroke-miterlimit="10"/>
<path d="M903.407 400.253H639.593C635.676 400.253 632.5 403.429 632.5 407.346V418.16C632.5 422.077 635.676 425.253 639.593 425.253H903.407C907.324 425.253 910.5 422.077 910.5 418.16V407.346C910.5 403.429 907.324 400.253 903.407 400.253Z" stroke="#3F3D56" stroke-miterlimit="10"/>
<path d="M903.407 468.253H639.593C635.676 468.253 632.5 471.429 632.5 475.346V486.16C632.5 490.077 635.676 493.253 639.593 493.253H903.407C907.324 493.253 910.5 490.077 910.5 486.16V475.346C910.5 471.429 907.324 468.253 903.407 468.253Z" stroke="#3F3D56" stroke-miterlimit="10"/>
<path opacity="0.3" d="M276.5 141.253C284.784 141.253 291.5 134.537 291.5 126.253C291.5 117.969 284.784 111.253 276.5 111.253C268.216 111.253 261.5 117.969 261.5 126.253C261.5 134.537 268.216 141.253 276.5 141.253Z" fill="#A56FFD"/>
<path opacity="0.3" d="M318.5 141.253C326.784 141.253 333.5 134.537 333.5 126.253C333.5 117.969 326.784 111.253 318.5 111.253C310.216 111.253 303.5 117.969 303.5 126.253C303.5 134.537 310.216 141.253 318.5 141.253Z" fill="#A56FFD"/>
<path opacity="0.3" d="M360.5 141.253C368.784 141.253 375.5 134.537 375.5 126.253C375.5 117.969 368.784 111.253 360.5 111.253C352.216 111.253 345.5 117.969 345.5 126.253C345.5 134.537 352.216 141.253 360.5 141.253Z" fill="#A56FFD"/>
<path d="M282.5 135.253C290.784 135.253 297.5 128.537 297.5 120.253C297.5 111.969 290.784 105.253 282.5 105.253C274.216 105.253 267.5 111.969 267.5 120.253C267.5 128.537 274.216 135.253 282.5 135.253Z" stroke="#3F3D56" stroke-miterlimit="10"/>
<path d="M324.5 135.253C332.784 135.253 339.5 128.537 339.5 120.253C339.5 111.969 332.784 105.253 324.5 105.253C316.216 105.253 309.5 111.969 309.5 120.253C309.5 128.537 316.216 135.253 324.5 135.253Z" stroke="#3F3D56" stroke-miterlimit="10"/>
<path d="M366.5 135.253C374.784 135.253 381.5 128.537 381.5 120.253C381.5 111.969 374.784 105.253 366.5 105.253C358.216 105.253 351.5 111.969 351.5 120.253C351.5 128.537 358.216 135.253 366.5 135.253Z" stroke="#3F3D56" stroke-miterlimit="10"/>
<path d="M453.354 574.253C450.843 562.684 450.177 546.883 451.021 535.893C451.021 535.893 438.323 480.106 428.331 474.901L428.328 474.904C428.175 475.101 423.327 481.458 422.711 501.128C422.087 521.111 415.011 534.225 415.011 534.225C415.011 534.225 417.301 559.133 415.992 574.253H453.354Z" fill="#A56FFD"/>
<path d="M545.728 219.253H315.272C308.967 219.253 302.921 221.757 298.463 226.215C294.005 230.673 291.5 236.719 291.5 243.024V550.481C291.5 553.603 292.115 556.694 293.31 559.578C294.504 562.462 296.255 565.083 298.463 567.29C300.67 569.498 303.291 571.249 306.175 572.444C309.059 573.638 312.15 574.253 315.272 574.253H396.127C393.427 563.053 390.07 545.563 393.469 533.4L393.468 533.392L393.47 533.398C393.625 532.836 393.797 532.279 393.986 531.728C396.321 523.835 397.1 515.563 396.278 507.373C397.779 500.375 397.779 493.139 396.278 486.141C393.78 474.486 392.032 463.036 392.032 463.036C392.032 463.036 390.655 447.634 391.857 438.192C391.883 437.984 391.914 437.788 391.943 437.586C391.519 437.49 391.281 437.434 391.281 437.434C391.281 437.434 394.82 421.406 396.069 411.207C396.364 408.799 396.752 405.747 397.172 402.492C396.019 402.301 394.884 402.013 393.779 401.632C382.54 397.677 379 361.874 379 361.874V350.53C379 350.53 375.253 333.149 388.367 325.447C400.995 318.031 406.037 316.001 406.393 315.861C406.489 315.791 406.583 315.729 406.681 315.653C408.108 314.533 409.238 313.08 409.971 311.42C409.988 311.133 409.992 310.849 409.983 310.568C409.77 306.501 406.939 302.802 404.253 299.575L397.38 291.318C396.595 290.498 395.992 289.522 395.61 288.453C395.465 287.863 395.401 287.256 395.422 286.649C395.421 286.424 395.422 286.2 395.426 285.976C395.463 283.924 395.519 281.872 395.594 279.821C395.658 278.029 396.109 275.767 397.864 275.399C398.777 275.207 399.985 275.541 400.468 274.743C400.63 274.414 400.671 274.039 400.585 273.683C400.579 273.709 400.577 273.737 400.57 273.763L400.552 273.663C400.191 272.226 399.973 270.757 399.902 269.277C399.882 268.609 399.977 267.943 400.183 267.307C401.2 264.332 404.701 263.111 407.795 262.55C410.889 261.989 414.361 261.506 416.303 259.033C416.823 258.212 417.387 257.419 417.992 256.659C418.883 255.849 419.977 255.297 421.158 255.062C424.998 254.09 429.055 254.45 432.664 256.083C434.16 256.766 435.664 257.686 437.305 257.582C439.01 257.474 440.467 256.274 442.15 255.982C444.87 255.51 447.47 257.547 448.81 259.96C449.661 261.495 450.086 263.229 450.042 264.983C450.074 266.73 449.444 268.423 448.278 269.724C447.108 270.966 445.361 271.818 444.876 273.454C444.678 274.119 444.724 274.836 444.549 275.508C444.527 275.592 444.491 275.671 444.463 275.752C444.495 275.794 444.53 275.833 444.561 275.875C446.608 278.572 447.98 281.72 448.563 285.056C449.146 288.391 448.922 291.818 447.911 295.05C446.9 298.281 445.13 301.224 442.75 303.633C440.37 306.041 437.448 307.846 434.229 308.895C434.221 309.105 434.213 309.315 434.214 309.527C434.154 310.839 434.376 312.149 434.866 313.368C435.356 314.587 436.102 315.686 437.054 316.592L455.601 324.198C455.601 324.198 466.767 322.845 470.796 339.508C471.442 342.278 471.674 345.127 471.486 347.965C471.339 350.478 471.681 354.901 474.543 360.625C479.123 369.784 478.082 390.807 468.715 392.889C459.842 394.861 456.391 394.032 456.051 393.939L456.031 394.307C456.177 398.252 457.581 432.277 462.678 436.393C464.088 437.532 463.818 438.301 462.662 438.819L462.665 438.822L462.695 439.434C462.849 441.923 463.635 451.399 467.048 456.791C471.004 463.036 470.589 499.049 470.589 499.049L473.293 520.281C473.293 520.281 471.629 533.394 473.293 535.683C474.239 536.981 475.383 557.087 476.198 574.253H545.728C548.85 574.253 551.941 573.638 554.825 572.443C557.71 571.249 560.33 569.498 562.538 567.29C564.745 565.082 566.496 562.462 567.691 559.578C568.885 556.693 569.5 553.602 569.5 550.48V243.024C569.5 236.719 566.995 230.673 562.537 226.215C558.079 221.757 552.033 219.253 545.728 219.253V219.253Z" fill="#A56FFD"/>
<path d="M521.728 192.253H291.272C278.143 192.253 267.5 202.896 267.5 216.025V523.481C267.5 536.61 278.143 547.253 291.272 547.253H521.728C534.857 547.253 545.5 536.61 545.5 523.481V216.025C545.5 202.896 534.857 192.253 521.728 192.253Z" stroke="#3F3D56" stroke-miterlimit="10"/>
<path d="M100.824 321.63C100.824 321.63 91.4999 318.874 89.4999 321.874C87.4999 324.874 92.2269 346.621 92.2269 346.621L112.773 347.87L105.603 329.763L100.824 321.63Z" fill="#2F2E41"/>
<path d="M28.9441 500.22C28.9441 500.22 47.6391 541.263 33.2421 539.974C18.8451 538.685 13.2581 500.221 13.2581 500.221L28.9441 500.22ZM151.211 495.945C151.211 495.945 143.01 540.292 156.667 535.555C170.324 530.818 166.431 492.147 166.431 492.147L151.211 495.945ZM96.8471 311.34C96.8471 311.34 96.6321 331.969 104.582 333.043C112.532 334.117 100.07 345.076 100.07 345.076L85.8881 347.87L65.4741 346.366L56.4491 334.762C56.4491 334.762 72.3501 327.242 65.4741 303.819L96.8471 311.34Z" fill="#A0616A"/>
<path opacity="0.1" d="M96.847 311.34C96.847 311.34 96.632 331.969 104.582 333.043C112.532 334.117 100.07 345.076 100.07 345.076L85.888 347.87L65.474 346.366L56.449 334.762C56.449 334.762 72.35 327.242 65.474 303.819L96.847 311.34Z" fill="black"/>
<path d="M133.376 485.824C133.376 485.824 143.476 507.527 135.526 575.644C135.526 575.644 137.889 599.711 135.955 604.224C134.021 608.737 118.12 669.977 118.12 669.977C118.12 669.977 97.7061 674.489 94.9131 660.952C94.9131 660.952 97.7061 641.612 97.4911 638.604C97.2761 635.596 102.004 602.719 102.004 602.719L92.3341 539.114L85.0281 596.488C85.0281 596.488 85.0281 613.033 82.6641 616.686C80.3001 620.339 82.6641 693.829 82.6641 693.829C82.6641 693.829 89.3261 705.003 79.2261 705.217C69.1261 705.431 60.1021 705.003 59.2421 697.911C58.3821 690.819 57.9531 683.729 55.8041 679.431C53.6551 675.133 50.8621 625.926 51.5071 608.736C52.1521 591.546 37.3241 503.229 42.0521 493.989C46.7801 484.749 133.376 485.824 133.376 485.824V485.824Z" fill="#2F2E41"/>
<path d="M85.8881 319.076C100.129 319.076 111.674 307.531 111.674 293.29C111.674 279.049 100.129 267.504 85.8881 267.504C71.6468 267.504 60.1021 279.049 60.1021 293.29C60.1021 307.531 71.6468 319.076 85.8881 319.076Z" fill="#A0616A"/>
<path d="M60.1021 335.192C60.1021 335.192 75.7881 346.795 98.5661 337.556C98.5661 337.556 106.086 333.903 105.442 328.316C104.798 322.729 121.128 373.226 121.128 373.226L137.674 461.112L136.814 496.997C136.814 496.997 129.509 493.344 106.731 501.51C83.9531 509.676 46.7791 492.27 46.7791 492.27L48.0691 400.086L49.3581 346.366L52.7961 334.547C52.7961 334.547 54.5151 331.324 60.1021 335.192V335.192Z" fill="#F2F2F2"/>
<path d="M97.5631 320.767C97.5631 320.767 101.359 320.15 105.013 325.952C108.667 331.754 117.26 335.407 117.26 335.407C117.26 335.407 138.104 336.697 141.112 347.87C144.12 359.043 151.642 374.3 155.294 402.45C158.946 430.6 166.254 475.51 167.328 479.162C168.402 482.814 165.824 493.989 168.832 497.427C171.84 500.865 147.559 500.865 147.559 500.865C147.559 500.865 145.409 483.245 143.906 483.245C142.403 483.245 142.831 495.064 144.336 503.659C145.841 512.254 133.376 503.659 133.376 503.659C133.376 503.659 123.706 464.336 114.466 428.88C105.226 393.424 99.8551 373.87 101.574 365.92C103.293 357.97 108.02 335.192 104.582 333.043C101.144 330.894 97.5631 320.767 97.5631 320.767V320.767ZM66.576 320.748C66.576 320.748 60.962 323.803 46.779 333.903C32.596 344.003 22.9271 351.738 22.9271 351.738C22.9271 351.738 17.3411 356.035 13.9021 381.606C10.4631 407.177 2.73005 473.361 5.73705 481.741C8.74405 490.121 9.82005 495.064 8.74505 500.006C7.67005 504.948 31.3081 504.733 31.7381 503.659C32.1681 502.585 31.0931 483.03 32.1681 482.6C33.2431 482.17 39.044 494.204 40.118 504.303C41.192 514.402 53.6561 522.353 56.4491 522.353C59.2421 522.353 73.639 464.121 73.854 424.368C74.069 384.615 69.127 351.093 65.474 346.366C61.821 341.639 66.576 320.748 66.576 320.748V320.748Z" fill="#2F2E41"/>
<path d="M104.367 671.91C104.367 671.91 106.087 667.183 112.103 668.688C118.119 670.193 122.203 664.82 122.203 664.82C122.203 664.82 125.426 664.39 123.277 668.473C121.128 672.556 119.409 675.349 119.409 675.349C119.409 675.349 132.302 704.788 123.922 711.879C115.542 718.97 105.872 714.672 105.872 714.672C105.872 714.672 96.417 708.011 96.847 690.391C96.847 690.391 96.417 684.804 91.26 675.779C86.103 666.754 82.235 653 88.466 650.423C94.697 647.846 96.302 647.748 96.302 647.748C96.302 647.748 93.3859 661.086 100.918 665.746L104.367 671.91ZM64.4 705.217C64.4 705.217 59.2419 695.547 67.8379 694.473C76.4339 693.399 85.6729 692.754 85.2429 697.267C84.8129 701.78 83.7389 708.656 83.7389 708.656L85.2429 713.598C85.2429 713.598 85.673 725.846 87.177 727.35C88.681 728.854 96.847 741.747 79.441 741.747C62.035 741.747 56.8789 739.813 58.3829 735.731C59.8869 731.649 60.317 711.449 60.317 711.449L64.4 705.217Z" fill="#3F3D56"/>
<path d="M77.722 272.661C77.722 272.661 89.756 275.885 95.987 277.174C102.218 278.463 101.574 274.81 101.574 274.81C101.574 274.81 109.74 275.885 109.31 275.025C108.88 274.165 112.748 269.653 108.235 264.496C103.722 259.339 105.012 255.471 105.012 255.471H101.144L100.07 253.967H94.053C94.053 253.967 89.541 252.247 77.723 253.967C65.905 255.687 49.788 256.116 48.498 263.207C47.208 270.298 40.548 279.107 42.911 283.191C45.274 287.275 58.813 304.034 60.101 311.125C61.389 318.216 67.411 319.792 67.195 315.351C66.979 310.91 60.961 295.439 66.119 294.794C71.277 294.149 80.086 281.042 77.722 272.661V272.661Z" fill="#2F2E41"/>
<path d="M934.88 7.45703C930.617 7.6978 926.506 9.12123 923.007 11.5677C919.508 14.0142 916.76 17.3871 915.07 21.308C910.117 33.282 916.495 47.348 926.07 56.078C935.645 64.808 947.943 69.801 959.118 76.361C974.128 85.172 987.615 97.404 995.125 113.105C1002.63 128.806 1003.43 148.255 994.606 163.255C986.412 177.177 971.513 185.51 957.304 193.195" stroke="#3F3D56" stroke-miterlimit="10"/>
<path d="M947.5 17C957.165 17 965 13.1944 965 8.5C965 3.80558 957.165 0 947.5 0C937.835 0 930 3.80558 930 8.5C930 13.1944 937.835 17 947.5 17Z" fill="#A56FFD"/>
<path d="M961.5 73C971.165 73 979 69.1944 979 64.5C979 59.8056 971.165 56 961.5 56C951.835 56 944 59.8056 944 64.5C944 69.1944 951.835 73 961.5 73Z" fill="#A56FFD"/>
<path d="M929.5 82C939.165 82 947 78.1944 947 73.5C947 68.8056 939.165 65 929.5 65C919.835 65 912 68.8056 912 73.5C912 78.1944 919.835 82 929.5 82Z" fill="#A56FFD"/>
<path d="M979.5 129C989.165 129 997 125.194 997 120.5C997 115.806 989.165 112 979.5 112C969.835 112 962 115.806 962 120.5C962 125.194 969.835 129 979.5 129Z" fill="#A56FFD"/>
<path d="M1014.5 129C1024.16 129 1032 125.194 1032 120.5C1032 115.806 1024.16 112 1014.5 112C1004.84 112 997 115.806 997 120.5C997 125.194 1004.84 129 1014.5 129Z" fill="#A56FFD"/>
</g>
<defs>
<clipPath id="clip0_216_87">
<rect width="1032" height="741.753" fill="white"/>
</clipPath>
</defs>
</svg>
