<svg width="730" height="747" viewBox="0 0 730 747" fill="none" xmlns="http://www.w3.org/2000/svg">
<g clip-path="url(#clip0_216_2)">
<path d="M0.0653076 136.099L312.305 48.2814L427.763 458.797L115.523 546.614L0.0653076 136.099Z" fill="url(#paint0_linear_216_2)"/>
<path d="M-0.00872803 137.926L314.332 51.5193L357.532 208.68L43.192 295.087L-0.00872803 137.926Z" fill="url(#paint1_linear_216_2)"/>
<path d="M5.35602 140.307L310.951 56.305L421.655 459.036L116.06 543.04L5.35602 140.307Z" fill="#EEEEEE"/>
<path d="M4.89502 140.023L311.194 55.827L353.387 209.323L47.09 293.52L4.89502 140.023Z" fill="#A56FFD"/>
<path d="M123.414 319.118L206.503 296.278L208.243 302.614L125.156 325.454L123.414 319.118Z" fill="#BDBDBD"/>
<path d="M130.384 344.474L213.472 321.634L215.214 327.97L132.126 350.81L130.384 344.474Z" fill="#F5F5F5"/>
<path d="M126.903 331.798L343.778 272.183L345.52 278.518L128.644 338.133L126.903 331.798Z" fill="#69F0AE"/>
<path d="M140.72 164.409L223.808 141.569L225.549 147.905L142.461 170.744L140.72 164.409ZM144.59 178.488L278.377 141.712L280.119 148.047L146.331 184.823L144.59 178.488Z" fill="white"/>
<path opacity="0.2" d="M255.085 167.815L177.956 189.017C176.31 189.469 175.343 191.17 175.795 192.815L176.092 193.895C176.545 195.541 178.245 196.508 179.891 196.056L257.02 174.854C258.665 174.402 259.633 172.701 259.18 171.056L258.883 169.976C258.431 168.33 256.73 167.363 255.085 167.815Z" fill="black"/>
<path d="M93.9648 351.08C102.134 348.834 106.936 340.392 104.69 332.223C102.445 324.054 94.0021 319.252 85.833 321.497C77.664 323.743 72.862 332.185 75.1076 340.354C77.3531 348.523 85.7958 353.325 93.9648 351.08Z" fill="#69F0AE"/>
<path d="M140.269 380.381L223.357 357.541L225.098 363.877L142.01 386.717L140.269 380.381Z" fill="#BDBDBD"/>
<path d="M147.229 405.737L230.317 382.897L232.058 389.233L148.97 412.073L147.229 405.737Z" fill="#F5F5F5"/>
<path d="M143.747 393.06L360.623 333.445L362.363 339.78L145.488 399.396L143.747 393.06Z" fill="#E0E0E0"/>
<path d="M110.8 412.345C118.969 410.1 123.771 401.657 121.525 393.488C119.28 385.319 110.837 380.517 102.668 382.763C94.4988 385.008 89.6969 393.451 91.9424 401.62C94.1879 409.789 102.631 414.591 110.8 412.345Z" fill="#E0E0E0"/>
<path d="M157.1 441.637L240.189 418.797L241.93 425.133L158.842 447.973L157.1 441.637Z" fill="#BDBDBD"/>
<path d="M164.07 466.983L247.159 444.143L248.9 450.479L165.812 473.319L164.07 466.983Z" fill="#F5F5F5"/>
<path d="M160.582 454.316L377.457 394.701L379.199 401.036L162.323 460.651L160.582 454.316Z" fill="#E0E0E0"/>
<path d="M127.644 473.608C135.813 471.363 140.615 462.92 138.37 454.751C136.124 446.582 127.681 441.78 119.512 444.026C111.343 446.271 106.541 454.714 108.787 462.883C111.032 471.052 119.475 475.854 127.644 473.608Z" fill="#E0E0E0"/>
<path d="M39.23 210.22C41.3755 217.657 45.5213 224.362 51.2154 229.604C56.9095 234.847 63.9334 238.426 71.5217 239.951C79.1099 241.476 86.9712 240.889 94.2487 238.254C101.526 235.619 107.941 231.036 112.793 225.006C117.645 218.976 120.749 211.729 121.766 204.057C122.784 196.384 121.675 188.579 118.562 181.493C115.448 174.406 110.449 168.311 104.11 163.87C97.7703 159.43 90.3335 156.815 82.61 156.31L85.61 166.78C86.6488 170.429 86.2012 174.341 84.365 177.661C82.5288 180.982 79.4531 183.44 75.81 184.5C72.1609 185.539 68.2489 185.091 64.9287 183.255C61.6084 181.419 59.1499 178.343 58.09 174.7L55.09 164.23C48.0348 169.332 42.7257 176.486 39.8872 184.717C37.0488 192.948 36.8192 201.854 39.23 210.22Z" fill="url(#paint2_linear_216_2)"/>
<path d="M119.61 183.5C117.555 176.036 113.49 169.28 107.859 163.968C102.227 158.656 95.2456 154.992 87.6748 153.376C80.1039 151.76 72.2347 152.253 64.925 154.802C57.6153 157.351 51.1458 161.858 46.2218 167.832C41.2979 173.805 38.1085 181.016 37.0015 188.678C35.8945 196.34 36.9124 204.159 39.9441 211.282C42.9758 218.405 47.905 224.559 54.1942 229.073C60.4835 233.587 67.8913 236.287 75.61 236.88L72.72 226.38C71.7249 222.72 72.218 218.816 74.0915 215.518C75.965 212.221 79.0669 209.799 82.72 208.78C86.3796 207.785 90.2842 208.278 93.5816 210.152C96.879 212.025 99.3014 215.127 100.32 218.78L103.21 229.28C110.321 224.263 115.711 217.175 118.646 208.982C121.581 200.79 121.918 191.891 119.61 183.5V183.5Z" fill="#A56FFD"/>
<path d="M81.6048 204.802C90.2585 202.424 95.3453 193.48 92.9665 184.826C90.5878 176.173 81.6443 171.086 72.9906 173.465C64.337 175.844 59.2502 184.787 61.6289 193.441C64.0077 202.094 72.9512 207.181 81.6048 204.802Z" fill="white" stroke="white" stroke-miterlimit="10"/>
<path d="M82.7 208.78C79.0469 209.799 75.9451 212.221 74.0715 215.518C72.198 218.816 71.705 222.72 72.7 226.38L75.59 236.88C85.3947 237.625 95.1538 234.942 103.2 229.29L100.31 218.79C99.2936 215.133 96.8706 212.027 93.5707 210.151C90.2707 208.275 86.3623 207.782 82.7 208.78V208.78ZM61.27 192.58C59.3462 190.497 58.0196 187.934 57.43 185.16C56.8547 182.363 57.3967 179.452 58.94 177.05C60.69 174.48 63.59 172.94 66.52 171.88C69.45 170.82 72.52 170.13 75.3 168.74C77.5984 167.578 79.6429 165.971 81.315 164.012C82.987 162.054 84.2532 159.782 85.04 157.33C85.9644 159.542 86.5802 161.87 86.87 164.25C87.0087 165.441 86.9029 166.648 86.559 167.796C86.2151 168.945 85.6404 170.011 84.87 170.93C86.95 169.17 87.4 171.83 87.31 173.52C88.88 174.62 91.81 174.07 92.47 175.87C93.2148 177.641 93.5234 179.565 93.37 181.48C93.12 183.38 94.71 186.16 92.91 186.8" fill="white"/>
<path d="M61.27 192.58C59.3462 190.497 58.0196 187.934 57.43 185.16C56.8547 182.363 57.3967 179.452 58.94 177.05C60.69 174.48 63.59 172.94 66.52 171.88C69.45 170.82 72.52 170.13 75.3 168.74C77.5984 167.578 79.6429 165.971 81.315 164.012C82.987 162.054 84.2532 159.782 85.04 157.33C85.9644 159.542 86.5802 161.87 86.87 164.25C87.0087 165.441 86.9029 166.648 86.559 167.796C86.2151 168.945 85.6404 170.011 84.87 170.93C86.95 169.17 87.4 171.83 87.31 173.52C88.88 174.62 91.81 174.07 92.47 175.87C93.2148 177.641 93.5234 179.565 93.37 181.48C93.12 183.38 94.71 186.16 92.91 186.8M82.7 208.78C79.0469 209.799 75.9451 212.221 74.0715 215.518C72.198 218.816 71.705 222.72 72.7 226.38L75.59 236.88C85.3947 237.625 95.1538 234.942 103.2 229.29L100.31 218.79C99.2936 215.133 96.8706 212.027 93.5707 210.151C90.2707 208.275 86.3623 207.782 82.7 208.78V208.78Z" stroke="white" stroke-miterlimit="10"/>
<path d="M85.61 170.31C85.61 170.31 96.81 168.26 93.48 186.63Z" fill="white"/>
<path d="M637.77 714.25H532.34V285.78H729.22L637.77 714.25Z" fill="url(#paint3_linear_216_2)"/>
<path d="M632.52 714.25H529.17V285.78H722.16L632.52 714.25Z" fill="#BDBDBD"/>
<path d="M333.728 186.841L657.167 152.561L702.236 577.799L378.798 612.079L333.728 186.841Z" fill="url(#paint4_linear_216_2)"/>
<path d="M333.314 186.483L657.498 152.124L674.677 314.206L350.493 348.565L333.314 186.483Z" fill="url(#paint5_linear_216_2)"/>
<path d="M338.216 189.692L653.38 156.29L697.4 571.634L382.236 605.037L338.216 189.692Z" fill="#F5F5F5"/>
<path d="M337.809 189.339L653.699 155.859L670.478 314.162L354.587 347.642L337.809 189.339Z" fill="#A56FFD"/>
<path d="M425.77 385.267L511.46 376.185L512.153 382.718L426.463 391.8L425.77 385.267Z" fill="#BDBDBD"/>
<path d="M428.54 411.41L514.23 402.327L514.923 408.861L429.233 417.943L428.54 411.41Z" fill="#F5F5F5"/>
<path d="M427.152 398.34L650.819 374.634L651.512 381.167L427.845 404.873L427.152 398.34Z" fill="#69F0AE"/>
<path d="M467.9 235.401L553.59 226.319L554.283 232.853L468.593 241.935L467.9 235.401ZM469.432 249.93L607.409 235.305L608.102 241.839L470.124 256.463L469.432 249.93Z" fill="white"/>
<path opacity="0.2" d="M580.19 257.272L500.646 265.702C498.949 265.882 497.719 267.404 497.899 269.101L498.017 270.215C498.196 271.912 499.718 273.142 501.415 272.962L580.96 264.531C582.657 264.351 583.887 262.83 583.707 261.133L583.589 260.019C583.409 258.322 581.887 257.092 580.19 257.272Z" fill="black"/>
<path d="M391.521 412.033C399.946 411.14 406.052 403.586 405.159 395.161C404.266 386.737 396.713 380.631 388.288 381.524C379.863 382.417 373.757 389.97 374.65 398.395C375.543 406.82 383.097 412.926 391.521 412.033Z" fill="#69F0AE"/>
<path d="M432.471 448.439L518.161 439.357L518.854 445.89L433.164 454.972L432.471 448.439Z" fill="#BDBDBD"/>
<path d="M435.242 474.581L520.932 465.499L521.624 472.033L435.934 481.115L435.242 474.581Z" fill="#F5F5F5"/>
<path d="M433.853 461.511L657.52 437.806L658.212 444.339L434.545 468.045L433.853 461.511Z" fill="#E0E0E0"/>
<path d="M398.222 475.205C406.647 474.312 412.753 466.758 411.86 458.334C410.967 449.909 403.413 443.803 394.988 444.696C386.563 445.589 380.458 453.142 381.351 461.567C382.243 469.992 389.797 476.098 398.222 475.205Z" fill="#E0E0E0"/>
<path d="M439.163 511.612L524.853 502.53L525.545 509.063L439.855 518.145L439.163 511.612Z" fill="#BDBDBD"/>
<path d="M441.932 537.754L527.622 528.672L528.315 535.206L442.625 544.288L441.932 537.754Z" fill="#F5F5F5"/>
<path d="M440.544 524.684L664.212 500.979L664.904 507.512L441.237 531.218L440.544 524.684Z" fill="#E0E0E0"/>
<path d="M404.914 538.378C413.338 537.485 419.444 529.931 418.551 521.507C417.659 513.082 410.105 506.976 401.68 507.869C393.255 508.762 387.149 516.315 388.042 524.74C388.935 533.165 396.489 539.271 404.914 538.378Z" fill="#E0E0E0"/>
<path d="M360.3 264.19C361.203 271.88 364.201 279.174 368.965 285.276C373.73 291.379 380.079 296.056 387.32 298.798C394.561 301.54 402.415 302.241 410.027 300.824C417.639 299.407 424.715 295.928 430.485 290.765C436.255 285.602 440.496 278.954 442.746 271.545C444.997 264.137 445.169 256.253 443.246 248.753C441.322 241.254 437.376 234.426 431.838 229.015C426.3 223.605 419.382 219.819 411.84 218.07L413.12 228.89C413.541 232.647 412.463 236.418 410.121 239.385C407.779 242.352 404.362 244.277 400.61 244.74C396.841 245.174 393.053 244.099 390.073 241.75C387.094 239.4 385.166 235.967 384.71 232.2L383.43 221.38C375.637 225.267 369.233 231.464 365.093 239.126C360.953 246.788 359.28 255.541 360.3 264.19Z" fill="url(#paint6_linear_216_2)"/>
<path d="M443.94 250.86C443.121 243.163 440.206 235.838 435.51 229.685C430.815 223.531 424.521 218.784 417.313 215.962C410.105 213.139 402.261 212.35 394.636 213.679C387.011 215.009 379.896 218.406 374.069 223.5C368.241 228.595 363.924 235.192 361.588 242.571C359.252 249.951 358.987 257.83 360.821 265.35C362.655 272.87 366.519 279.742 371.99 285.217C377.462 290.693 384.331 294.561 391.85 296.4L390.7 285.57C390.31 281.795 391.431 278.02 393.816 275.069C396.201 272.118 399.658 270.231 403.43 269.82C407.205 269.43 410.98 270.551 413.931 272.936C416.882 275.321 418.769 278.778 419.18 282.55L420.33 293.38C428.162 289.583 434.632 283.462 438.857 275.852C443.082 268.243 444.857 259.515 443.94 250.86V250.86Z" fill="#0062FF"/>
<path d="M403.024 265.685C411.949 264.74 418.417 256.738 417.471 247.813C416.525 238.889 408.523 232.421 399.599 233.366C390.674 234.312 384.206 242.314 385.152 251.239C386.098 260.163 394.099 266.631 403.024 265.685Z" fill="white" stroke="white" stroke-miterlimit="10"/>
<path d="M403.43 269.82C399.658 270.231 396.201 272.118 393.816 275.069C391.431 278.02 390.31 281.795 390.7 285.57L391.85 296.4C401.404 298.73 411.471 297.669 420.33 293.4L419.18 282.57C418.774 278.794 416.889 275.333 413.938 272.943C410.986 270.554 407.208 269.431 403.43 269.82ZM384.91 250.36C383.347 247.991 382.452 245.245 382.32 242.41C382.206 239.56 383.211 236.779 385.12 234.66C387.26 232.4 390.38 231.35 393.44 230.78C396.5 230.21 399.61 230.07 402.61 229.07C405.066 228.296 407.344 227.042 409.311 225.38C411.279 223.718 412.896 221.682 414.07 219.39C414.625 221.721 414.857 224.116 414.76 226.51C414.704 227.708 414.403 228.883 413.877 229.961C413.351 231.039 412.61 231.998 411.7 232.78C414.03 231.38 414.05 234.07 413.7 235.73C415.07 237.07 418.05 237 418.41 238.89C418.865 240.756 418.865 242.704 418.41 244.57C417.85 246.4 418.98 249.41 417.09 249.74" fill="white"/>
<path d="M384.91 250.36C383.347 247.991 382.452 245.245 382.32 242.41C382.206 239.56 383.211 236.779 385.12 234.66C387.26 232.4 390.38 231.35 393.44 230.78C396.5 230.21 399.61 230.07 402.61 229.07C405.066 228.296 407.344 227.042 409.311 225.38C411.279 223.718 412.896 221.682 414.07 219.39C414.625 221.721 414.857 224.116 414.76 226.51C414.704 227.708 414.403 228.883 413.877 229.961C413.351 231.039 412.61 231.998 411.7 232.78C414.03 231.38 414.05 234.07 413.7 235.73C415.07 237.07 418.05 237 418.41 238.89C418.865 240.756 418.865 242.704 418.41 244.57C417.85 246.4 418.98 249.41 417.09 249.74M403.43 269.82C399.658 270.231 396.201 272.118 393.816 275.069C391.431 278.02 390.31 281.795 390.7 285.57L391.85 296.4C401.404 298.73 411.471 297.669 420.33 293.4L419.18 282.57C418.774 278.794 416.889 275.333 413.938 272.943C410.986 270.554 407.208 269.431 403.43 269.82Z" stroke="white" stroke-miterlimit="10"/>
<path d="M412.54 232.33C412.54 232.33 423.92 232.12 417.67 249.71Z" fill="white"/>
<path d="M220.3 0.400002H545.55V428.02H220.3V0.400002Z" fill="url(#paint7_linear_216_2)"/>
<path d="M219.92 0H545.92V162.99H219.92V0Z" fill="url(#paint8_linear_216_2)"/>
<path d="M224.46 3.71H541.39V421.38H224.46V3.71Z" fill="#F5F5F5"/>
<path d="M224.1 3.32H541.76V162.51H224.1V3.32Z" fill="#A56FFD"/>
<path d="M290.91 207.42H377.08V213.99H290.91V207.42Z" fill="#BDBDBD"/>
<path d="M290.91 233.71H377.08V240.28H290.91V233.71Z" fill="#F5F5F5"/>
<path d="M290.91 220.57H515.83V227.14H290.91V220.57Z" fill="#69F0AE"/>
<path d="M348.6 62.84H434.77V69.41H348.6V62.84ZM348.6 77.44H487.35V84.01H348.6V77.44Z" fill="white"/>
<path opacity="0.2" d="M457.97 96.43H377.98C376.273 96.43 374.89 97.8134 374.89 99.52V100.64C374.89 102.347 376.273 103.73 377.98 103.73H457.97C459.677 103.73 461.06 102.347 461.06 100.64V99.52C461.06 97.8134 459.677 96.43 457.97 96.43Z" fill="black"/>
<path d="M254.04 230.43C262.512 230.43 269.38 223.562 269.38 215.09C269.38 206.618 262.512 199.75 254.04 199.75C245.568 199.75 238.7 206.618 238.7 215.09C238.7 223.562 245.568 230.43 254.04 230.43Z" fill="#69F0AE"/>
<path d="M290.91 270.95H377.08V277.52H290.91V270.95Z" fill="#BDBDBD"/>
<path d="M290.91 297.24H377.08V303.81H290.91V297.24Z" fill="#F5F5F5"/>
<path d="M290.91 284.1H515.83V290.67H290.91V284.1Z" fill="#E0E0E0"/>
<path d="M254.04 293.96C262.512 293.96 269.38 287.092 269.38 278.62C269.38 270.148 262.512 263.28 254.04 263.28C245.568 263.28 238.7 270.148 238.7 278.62C238.7 287.092 245.568 293.96 254.04 293.96Z" fill="#E0E0E0"/>
<path d="M290.91 334.49H377.08V341.06H290.91V334.49Z" fill="#BDBDBD"/>
<path d="M290.91 360.77H377.08V367.34H290.91V360.77Z" fill="#F5F5F5"/>
<path d="M290.91 347.63H515.83V354.2H290.91V347.63Z" fill="#E0E0E0"/>
<path d="M254.04 357.49C262.512 357.49 269.38 350.622 269.38 342.15C269.38 333.678 262.512 326.81 254.04 326.81C245.568 326.81 238.7 333.678 238.7 342.15C238.7 350.622 245.568 357.49 254.04 357.49Z" fill="#E0E0E0"/>
<path d="M238.61 80.13C238.707 87.8694 240.927 95.4336 245.027 101.998C249.128 108.563 254.951 113.876 261.864 117.358C268.776 120.841 276.512 122.359 284.228 121.747C291.943 121.136 299.343 118.418 305.621 113.89C311.898 109.362 316.812 103.198 319.827 96.069C322.842 88.9404 323.842 81.1209 322.719 73.4629C321.596 65.8048 318.392 58.6021 313.456 52.6397C308.521 46.6774 302.043 42.1842 294.73 39.65L294.86 50.54C294.905 54.3469 293.437 58.016 290.778 60.7406C288.119 63.4653 284.487 65.0225 280.68 65.07C276.887 65.1048 273.234 63.6373 270.519 60.988C267.804 58.3387 266.248 54.7229 266.19 50.93L266.06 40.04C257.919 43.0915 250.917 48.5773 246.005 55.7507C241.093 62.9241 238.511 71.4367 238.61 80.13Z" fill="url(#paint9_linear_216_2)"/>
<path d="M323.16 75.68C323.157 67.9397 321.028 60.349 317.007 53.7351C312.986 47.1212 307.227 41.738 300.357 38.1723C293.487 34.6066 285.77 32.9953 278.047 33.5139C270.324 34.0326 262.892 36.6613 256.56 41.1135C250.229 45.5658 245.241 51.6707 242.14 58.7629C239.04 65.855 237.946 73.6622 238.977 81.3334C240.009 89.0046 243.126 96.2455 247.99 102.267C252.854 108.288 259.277 112.858 266.56 115.48V104.58C266.571 100.785 268.083 97.1491 270.766 94.4659C273.449 91.7827 277.085 90.2706 280.88 90.26C284.675 90.2706 288.311 91.7827 290.994 94.4659C293.677 97.1491 295.189 100.785 295.2 104.58V115.47C303.388 112.52 310.466 107.116 315.47 99.9947C320.473 92.8739 323.159 84.383 323.16 75.68Z" fill="#A56FFD"/>
<path d="M280.9 86.12C289.875 86.12 297.15 78.8446 297.15 69.87C297.15 60.8954 289.875 53.62 280.9 53.62C271.925 53.62 264.65 60.8954 264.65 69.87C264.65 78.8446 271.925 86.12 280.9 86.12Z" fill="white" stroke="white" stroke-miterlimit="10"/>
<path d="M280.87 90.26C277.075 90.2706 273.439 91.7827 270.756 94.4659C268.073 97.1491 266.561 100.785 266.55 104.58V115.47C275.808 118.789 285.932 118.789 295.19 115.47V104.58C295.179 100.785 293.667 97.1491 290.984 94.4659C288.301 91.7827 284.665 90.2706 280.87 90.26V90.26ZM264.51 68.96C263.208 66.4386 262.61 63.6127 262.78 60.78C262.965 57.9315 264.257 55.2683 266.38 53.36C268.75 51.36 271.96 50.63 275.06 50.36C278.16 50.09 281.3 50.26 284.36 49.66C286.883 49.1482 289.279 48.1403 291.41 46.6949C293.54 45.2495 295.362 43.3953 296.77 41.24C297.074 43.6153 297.051 46.0211 296.7 48.39C296.518 49.575 296.096 50.7104 295.46 51.7266C294.823 52.7428 293.986 53.6185 293 54.3C295.47 53.16 295.2 55.83 294.67 57.44C295.89 58.92 298.87 59.16 299.02 61.08C299.269 62.9858 299.056 64.9235 298.4 66.73C297.65 68.49 298.45 71.6 296.54 71.73" fill="white"/>
<path d="M264.51 68.96C263.208 66.4386 262.61 63.6127 262.78 60.78C262.965 57.9315 264.257 55.2683 266.38 53.36C268.75 51.36 271.96 50.63 275.06 50.36C278.16 50.09 281.3 50.26 284.36 49.66C286.883 49.1482 289.279 48.1403 291.41 46.6949C293.54 45.2495 295.362 43.3953 296.77 41.24C297.074 43.6153 297.051 46.0211 296.7 48.39C296.518 49.575 296.096 50.7104 295.46 51.7266C294.823 52.7428 293.986 53.6185 293 54.3C295.47 53.16 295.2 55.83 294.67 57.44C295.89 58.92 298.87 59.16 299.02 61.08C299.269 62.9858 299.056 64.9235 298.4 66.73C297.65 68.49 298.45 71.6 296.54 71.73M280.87 90.26C277.075 90.2706 273.439 91.7827 270.756 94.4659C268.073 97.1491 266.561 100.785 266.55 104.58V115.47C275.808 118.789 285.932 118.789 295.19 115.47V104.58C295.179 100.785 293.667 97.1491 290.984 94.4659C288.301 91.7827 284.665 90.2706 280.87 90.26V90.26Z" stroke="white" stroke-miterlimit="10"/>
<path d="M293.88 53.95C293.88 53.95 305.22 54.95 297.15 71.77Z" fill="white"/>
<path d="M190.59 304.74L119.42 254.91H20.88V746.14H636.74V304.74H190.59V304.74Z" fill="url(#paint10_linear_216_2)"/>
<path d="M26.15 309.78V738.25H632.52V309.78H193.25" fill="white"/>
<path d="M193.25 309.78L123.17 261.41H26.15V309.78" fill="#BDBDBD"/>
<path d="M162.34 373.01H496.34V675.01H162.34V373.01Z" fill="url(#paint11_linear_216_2)"/>
<path d="M166.88 375.21H493.3V669.52H166.88V375.21Z" fill="white"/>
<path d="M268.19 595.49H396.53V606H268.19V595.49Z" fill="#BDBDBD"/>
<path d="M189.87 616.52H470.31V627.03H189.87V616.52ZM189.87 637.55H470.31V648.06H189.87V637.55Z" fill="#E0E0E0"/>
<path d="M250.23 487.74C250.413 502.354 254.604 516.637 262.345 529.033C270.087 541.429 281.083 551.462 294.134 558.039C307.186 564.616 321.792 567.484 336.361 566.332C350.931 565.179 364.904 560.049 376.759 551.501C388.613 542.954 397.895 531.316 403.59 517.857C409.286 504.398 411.179 489.633 409.061 475.172C406.944 460.712 400.898 447.11 391.582 435.849C382.266 424.588 370.038 416.1 356.23 411.31L356.48 431.88C356.547 439.043 353.776 445.941 348.773 451.067C343.771 456.194 336.942 459.132 329.78 459.24C322.617 459.307 315.719 456.536 310.593 451.533C305.466 446.531 302.528 439.702 302.42 432.54L302.17 411.97C286.767 417.718 273.512 428.08 264.217 441.641C254.921 455.201 250.036 471.3 250.23 487.74V487.74Z" fill="url(#paint12_linear_216_2)"/>
<path d="M409.93 479.35C409.927 464.732 405.911 450.396 398.32 437.903C390.729 425.411 379.854 415.243 366.881 408.507C353.908 401.771 339.334 398.726 324.749 399.704C310.164 400.681 296.127 405.645 284.169 414.052C272.211 422.46 262.791 433.989 256.935 447.383C251.08 460.777 249.014 475.521 250.963 490.009C252.911 504.496 258.8 518.17 267.987 529.541C277.173 540.911 289.305 549.541 303.06 554.49V533.92C303.089 526.768 305.943 519.917 311 514.86C316.057 509.803 322.908 506.949 330.06 506.92C337.212 506.949 344.063 509.803 349.12 514.86C354.177 519.917 357.031 526.768 357.06 533.92V554.49C372.536 548.931 385.918 538.731 395.381 525.283C404.843 511.835 409.924 495.794 409.93 479.35Z" fill="#BDBDBD"/>
<path d="M332.78 492.81C332.78 490.159 330.631 488.01 327.98 488.01C325.329 488.01 323.18 490.159 323.18 492.81V517.06C323.18 519.711 325.329 521.86 327.98 521.86C330.631 521.86 332.78 519.711 332.78 517.06V492.81Z" fill="white" stroke="white" stroke-miterlimit="10"/>
<path d="M328.03 492.56C344.98 492.56 358.72 478.82 358.72 461.87C358.72 444.92 344.98 431.18 328.03 431.18C311.08 431.18 297.34 444.92 297.34 461.87C297.34 478.82 311.08 492.56 328.03 492.56Z" fill="white" stroke="white" stroke-miterlimit="10"/>
<path d="M327.98 500.38C320.828 500.409 313.977 503.263 308.92 508.32C303.863 513.377 301.009 520.228 300.98 527.38V547.95C318.459 554.215 337.571 554.215 355.05 547.95V527.42C355.031 520.249 352.173 513.378 347.099 508.31C342.026 503.242 335.151 500.391 327.98 500.38V500.38ZM297.08 460.17C294.621 455.411 293.491 450.077 293.81 444.73C294.163 439.355 296.603 434.331 300.61 430.73C305.08 426.92 311.14 425.57 317 425.1C322.86 424.63 328.79 424.91 334.55 423.78C339.313 422.815 343.837 420.914 347.859 418.186C351.881 415.458 355.322 411.958 357.98 407.89C358.35 412.39 358.72 416.96 357.85 421.4C356.98 425.84 354.7 430.19 350.85 432.56C355.51 430.4 355 435.46 353.99 438.49C356.3 441.28 361.91 441.74 362.2 445.35C362.49 448.96 362.44 452.69 361.03 456.02C359.62 459.35 361.13 465.21 357.53 465.47" fill="white"/>
<path d="M297.08 460.17C294.621 455.411 293.491 450.077 293.81 444.73C294.163 439.355 296.603 434.331 300.61 430.73C305.08 426.92 311.14 425.57 317 425.1C322.86 424.63 328.79 424.91 334.55 423.78C339.313 422.815 343.837 420.914 347.859 418.186C351.881 415.458 355.322 411.958 357.98 407.89C358.35 412.39 358.72 416.96 357.85 421.4C356.98 425.84 354.7 430.19 350.85 432.56C355.51 430.4 355 435.46 353.99 438.49C356.3 441.28 361.91 441.74 362.2 445.35C362.49 448.96 362.44 452.69 361.03 456.02C359.62 459.35 361.13 465.21 357.53 465.47M327.98 500.38C320.828 500.409 313.977 503.263 308.92 508.32C303.863 513.377 301.009 520.228 300.98 527.38V547.95C318.459 554.215 337.571 554.215 355.05 547.95V527.42C355.031 520.249 352.173 513.378 347.099 508.31C342.026 503.242 335.151 500.391 327.98 500.38V500.38Z" stroke="white" stroke-miterlimit="10"/>
<path d="M352.55 431.82C352.55 431.82 373.96 433.69 358.72 465.47Z" fill="white"/>
</g>
<defs>
<linearGradient id="paint0_linear_216_2" x1="271.638" y1="502.707" x2="156.18" y2="92.1915" gradientUnits="userSpaceOnUse">
<stop stop-color="#808080" stop-opacity="0.25"/>
<stop offset="0.54" stop-color="#808080" stop-opacity="0.12"/>
<stop offset="1" stop-color="#808080" stop-opacity="0.1"/>
</linearGradient>
<linearGradient id="paint1_linear_216_2" x1="200.359" y1="251.874" x2="157.159" y2="94.713" gradientUnits="userSpaceOnUse">
<stop stop-color="#B3B3B3" stop-opacity="0.25"/>
<stop offset="0.54" stop-color="#B3B3B3" stop-opacity="0.1"/>
<stop offset="1" stop-color="#B3B3B3" stop-opacity="0.05"/>
</linearGradient>
<linearGradient id="paint2_linear_216_2" x1="92.8477" y1="242.061" x2="66.3521" y2="163.781" gradientUnits="userSpaceOnUse">
<stop stop-opacity="0.12"/>
<stop offset="0.55" stop-opacity="0.09"/>
<stop offset="1" stop-opacity="0.02"/>
</linearGradient>
<linearGradient id="paint3_linear_216_2" x1="124720" y1="306320" x2="124720" y2="122734" gradientUnits="userSpaceOnUse">
<stop stop-color="#808080" stop-opacity="0.25"/>
<stop offset="0.54" stop-color="#808080" stop-opacity="0.12"/>
<stop offset="1" stop-color="#808080" stop-opacity="0.1"/>
</linearGradient>
<linearGradient id="paint4_linear_216_2" x1="269171" y1="260965" x2="249899" y2="79124.7" gradientUnits="userSpaceOnUse">
<stop stop-color="#808080" stop-opacity="0.25"/>
<stop offset="0.54" stop-color="#808080" stop-opacity="0.12"/>
<stop offset="1" stop-color="#808080" stop-opacity="0.1"/>
</linearGradient>
<linearGradient id="paint5_linear_216_2" x1="246392" y1="40925.3" x2="243592" y2="14509.2" gradientUnits="userSpaceOnUse">
<stop stop-color="#B3B3B3" stop-opacity="0.25"/>
<stop offset="0.54" stop-color="#B3B3B3" stop-opacity="0.1"/>
<stop offset="1" stop-color="#B3B3B3" stop-opacity="0.05"/>
</linearGradient>
<linearGradient id="paint6_linear_216_2" x1="-54220.9" y1="-20863.9" x2="-55312.9" y2="-27675" gradientUnits="userSpaceOnUse">
<stop stop-opacity="0.12"/>
<stop offset="0.55" stop-opacity="0.09"/>
<stop offset="1" stop-opacity="0.02"/>
</linearGradient>
<linearGradient id="paint7_linear_216_2" x1="124765" y1="183035" x2="124765" y2="171.457" gradientUnits="userSpaceOnUse">
<stop stop-color="#808080" stop-opacity="0.25"/>
<stop offset="0.54" stop-color="#808080" stop-opacity="0.12"/>
<stop offset="1" stop-color="#808080" stop-opacity="0.1"/>
</linearGradient>
<linearGradient id="paint8_linear_216_2" x1="125052" y1="26565.7" x2="125052" y2="0" gradientUnits="userSpaceOnUse">
<stop stop-color="#B3B3B3" stop-opacity="0.25"/>
<stop offset="0.54" stop-color="#B3B3B3" stop-opacity="0.1"/>
<stop offset="1" stop-color="#B3B3B3" stop-opacity="0.05"/>
</linearGradient>
<linearGradient id="paint9_linear_216_2" x1="-61140.8" y1="-40466.7" x2="-61416.7" y2="-47257.8" gradientUnits="userSpaceOnUse">
<stop stop-opacity="0.12"/>
<stop offset="0.55" stop-opacity="0.09"/>
<stop offset="1" stop-opacity="0.02"/>
</linearGradient>
<linearGradient id="paint10_linear_216_2" x1="202522" y1="366781" x2="202522" y2="125474" gradientUnits="userSpaceOnUse">
<stop stop-color="#808080" stop-opacity="0.25"/>
<stop offset="0.54" stop-color="#808080" stop-opacity="0.12"/>
<stop offset="1" stop-color="#808080" stop-opacity="0.1"/>
</linearGradient>
<linearGradient id="paint11_linear_216_2" x1="110162" y1="204226" x2="110162" y2="113022" gradientUnits="userSpaceOnUse">
<stop stop-color="#808080" stop-opacity="0.25"/>
<stop offset="0.54" stop-color="#808080" stop-opacity="0.12"/>
<stop offset="1" stop-color="#808080" stop-opacity="0.1"/>
</linearGradient>
<linearGradient id="paint12_linear_216_2" x1="-108627" y1="-8095.46" x2="-109612" y2="-32304.4" gradientUnits="userSpaceOnUse">
<stop stop-opacity="0.12"/>
<stop offset="0.55" stop-opacity="0.09"/>
<stop offset="1" stop-opacity="0.02"/>
</linearGradient>
<clipPath id="clip0_216_2">
<rect width="729.22" height="746.14" fill="white"/>
</clipPath>
</defs>
</svg>
