<svg width="500" height="286" viewBox="0 0 500 286" fill="none" xmlns="http://www.w3.org/2000/svg">
<g clip-path="url(#clip0_220_2)">
<path d="M490.6 187.2V220.2H480.8V233.2H466.6V240.9H459.6V211.1H455.2V207.3H439.5V211.1H433V196.3H424.9V191.4L416.3 190.5V183.7L405.7 184.9V189.4L393.2 188.1V196.3H385V209H374.9V240.9H362.4V229.3H343.6V220.3L339 220.9V215.9L328.4 217.2V222.1L323.9 222.7V229.3H314.4V236.3H300.5V231.6H263.6V224.2H254.1V217.4L249.6 216.8V211.6L239 210.3V215.5L234.4 214.9V224.2H215.6V236.3H203.1V203H193V189.9H184.8V181.3L172.3 182.6V178L161.7 176.7V183.8L153.1 184.7V189.9H145V205.2H138.5V201.3H122.8V205.2H118.4V236.3H111.4V228.3H97.2V214.8H87.4V180.3L63.4 176.7V214.8H54.7V203H44.9V198L34.2 196.7V203H30.7V214.4H22.9V205.2H0V285.7H499.6V185.9L490.6 187.2Z" fill="#5596e6"/>
<path d="M499.6 218.4V216.9C489 212.7 481.7 209 479.1 207.7C478.8 207 478.1 206.4 477.2 206.2L473 205.5C472.8 205.3 472.5 205.3 472.2 205.4L457.8 203C456.3 202.7 454.9 203.9 454.9 205.5V206.1C426.9 227.2 401.2 233 381.4 232.9C381 232.8 380.7 232.8 380.3 232.7C361.8 229.6 348.8 221.9 344.3 219C344.2 218.1 343.6 217.4 342.7 217.3L327.9 214.8C327.4 214.7 326.9 214.9 326.5 215.1C326.4 215.1 326.4 215.1 326.3 215.2C317.7 221.9 309.4 226.6 301.6 229.8V224.8H278.7V232.7H270.9V222.9H267.4V217.4L256.7 218.5V222.9H246.8V227.3C246.7 227.2 246.5 227.1 246.4 227.1V222C246.4 221.1 245.8 220.4 244.9 220.3L238.2 219.2V200.3L219.6 202.7V141.1H215V123H209.6V108.8H207.3V101.5L202.6 96.8H202V81.7H201V68.6H199.3V81.7H198.3V96.6H197.7L193 101.3V108.6H190.7V122.8H185.3V140.9H180.7V224.7H179V221.3H163.3V224.7H156.9V211.5H148.7V207L140.1 206.2V200.1L129.4 201.2V205.2L116.9 204V211.4H108.7V222.7H98.5V251.4H86V241H67.1V233L62.6 233.5V229L52 230.2V234.7L47.5 235.2V241.1H38V247.4H1.1V251.5H0V285.7H499.6V260L495.4 259.7V257L485.4 256.3V259L481.2 258.7V263.5H479.4V248.7L499.7 248.5V238.5H498.1V230C498.6 230.1 499.1 230.3 499.7 230.4V228.9C499.2 228.8 498.6 228.6 498.1 228.5V225.1C498.6 225.2 499.1 225.4 499.7 225.5V224C499.2 223.9 498.7 223.7 498.1 223.6V221.4C498.6 221.6 499.1 221.8 499.7 221.9V220.4C499.2 220.2 498.7 220 498.1 219.8V217.7C498.5 218 499.1 218.2 499.6 218.4ZM241.6 228.2C241.8 228.1 242 228.1 242.2 228.1C243.3 228.1 244.3 229.1 244.4 230.3C243.4 229.9 242.5 229.5 241.6 229.1V228.2V228.2ZM244.4 232.9H241.6V230.8C242.5 231.3 243.4 231.7 244.4 232.2V232.9ZM246.8 231.3C246.7 231.3 246.5 231.2 246.4 231.2V230.4C246.5 230.5 246.7 230.6 246.8 230.7V231.3ZM246.8 229.5C246.7 229.4 246.5 229.3 246.4 229.2V228.1C246.5 228.2 246.7 228.3 246.8 228.3V229.5V229.5ZM317.2 222.7C318.1 222.2 318.9 221.6 319.8 221V223.6C318.9 224.2 318.1 224.7 317.2 225.2V222.7ZM317.2 226.3C318.1 225.8 318.9 225.2 319.8 224.7V227.5C318.9 227.9 318.1 228.4 317.2 228.8V226.3V226.3ZM317.2 229.8C318.1 229.4 318.9 229 319.8 228.5V230.9C318.9 231.4 318.1 231.8 317.2 232.2V229.8ZM317.2 233.4C318.1 233 318.9 232.5 319.8 232.1V243.9L317.2 244V233.4ZM314.2 224.5C315.1 224 315.9 223.5 316.8 223V225.6C315.9 226.1 315.1 226.6 314.2 227.1V224.5ZM314.2 228.1C315.1 227.6 315.9 227.1 316.8 226.6V229C315.9 229.4 315.1 229.8 314.2 230.2V228.1ZM314.2 231.2C315.1 230.8 315.9 230.4 316.8 230V232.5C315.9 232.9 315.1 233.3 314.2 233.7V231.2ZM314.2 234.8C315.1 234.4 315.9 234 316.8 233.6V244L314.2 244.1V234.8V234.8ZM311.1 226.2C312 225.7 312.8 225.3 313.7 224.8V227.3C312.8 227.8 312 228.3 311.1 228.7V226.2ZM311.1 229.8C312 229.4 312.8 228.9 313.7 228.4V230.4C312.8 230.8 312 231.1 311.1 231.5V229.8ZM311.1 232.5C312 232.2 312.8 231.8 313.7 231.5V234C312.8 234.4 312 234.7 311.1 235.1V232.5ZM311.1 236.1C312 235.8 312.8 235.4 313.7 235V244.1L311.1 244.2V236.1ZM308.1 227.8C309 227.4 309.8 226.9 310.7 226.5V229C309.8 229.4 309 229.9 308.1 230.3V227.8ZM308.1 231.3C309 230.9 309.8 230.5 310.7 230V231.6C309.8 231.9 309 232.2 308.1 232.5V231.3ZM308.1 233.6C309 233.3 309.8 233 310.7 232.7V235.3C309.8 235.6 309 236 308.1 236.3V233.6ZM308.1 237.3C309 237 309.8 236.7 310.7 236.3V244.2L308.1 244.3V237.3ZM305.1 229.2C306 228.8 306.8 228.4 307.7 228V230.4C306.8 230.8 306 231.2 305.1 231.6V229.2ZM305.1 232.7C306 232.3 306.8 231.9 307.7 231.5V232.7C306.8 233 306 233.3 305.1 233.5V232.7ZM305.1 234.6C306 234.3 306.8 234.1 307.7 233.8V236.4C306.8 236.7 306 237 305.1 237.3V234.6ZM305.1 238.3C306 238 306.8 237.7 307.7 237.4V244.2L305.1 244.3V238.3ZM302 230.5C302.9 230.1 303.7 229.8 304.6 229.4V231.8C303.7 232.2 302.9 232.5 302 232.8V230.5ZM302 233.9C302.9 233.6 303.7 233.2 304.6 232.9V233.7C303.7 234 302.9 234.2 302 234.4V233.9ZM302 235.5C302.9 235.3 303.7 235 304.6 234.8V237.5C303.7 237.8 302.9 238 302 238.2V235.5ZM302 239.2C302.9 239 303.7 238.7 304.6 238.5V244.4L302 244.5V239.2ZM320.1 258.7H312V252.6H302.7V250.4L320.1 250.2V258.7V258.7ZM322.8 239.2L320.2 239V231.9C321.1 231.4 321.9 231 322.8 230.5V239.2ZM322.8 229.3C321.9 229.8 321.1 230.3 320.2 230.8V228.4C321.1 228 321.9 227.5 322.8 227V229.3ZM322.8 225.8C321.9 226.3 321.1 226.7 320.2 227.2V224.4C321.1 223.8 321.9 223.3 322.8 222.7V225.8ZM322.8 221.5C321.9 222.1 321.1 222.7 320.2 223.3V220.7C321.1 220.1 321.9 219.5 322.8 218.9V221.5ZM325.7 239.4L323.3 239.2V230.1L325.7 228.6V239.4V239.4ZM325.7 227.5L323.3 229V226.7C324.1 226.2 324.9 225.8 325.7 225.3V227.5V227.5ZM325.7 224.1C324.9 224.6 324.1 225.1 323.3 225.5V222.2L325.7 220.4V224.1V224.1ZM325.7 219.3L323.3 221.1V218.5L325.7 216.7V219.3ZM334.1 240.1L329.2 239.7V227.8C329.2 227 329.5 226.3 329.9 225.8L330.8 225.2C331 225.1 331.3 225.1 331.6 225.1C332.9 225.1 334 226.3 334 227.9V240.1H334.1ZM342.1 240.8L337.2 240.4V228.6C337.2 227.1 338.3 225.8 339.6 225.8H339.7C340.2 226.1 340.8 226.3 341.3 226.6C341.7 227.1 342 227.8 342 228.5L342.1 240.8V240.8ZM450.2 211.2C450.9 210.7 451.7 210.2 452.4 209.6V213C451.7 213.5 450.9 214.1 450.2 214.6V211.2ZM450.2 216.4C450.9 215.9 451.7 215.4 452.4 214.9V218.7C451.7 219.1 450.9 219.5 450.2 219.9V216.4ZM450.2 221.5C450.9 221.1 451.7 220.7 452.4 220.3V223.9C451.7 224.3 450.9 224.8 450.2 225.2V221.5V221.5ZM450.2 226.8C450.9 226.4 451.7 226 452.4 225.5V240L450.2 240.1V226.8V226.8ZM447.4 213C448.1 212.5 448.9 212 449.6 211.5V214.9C448.9 215.4 448.1 215.9 447.4 216.4V213V213ZM447.4 218.2C448.1 217.7 448.9 217.2 449.6 216.7V220.1C448.9 220.5 448.1 220.9 447.4 221.3V218.2ZM447.4 222.9C448.1 222.5 448.9 222.1 449.6 221.7V225.4C448.9 225.8 448.1 226.2 447.4 226.6V222.9ZM447.4 228.2C448.1 227.8 448.9 227.4 449.6 227V240L447.4 240.1V228.2ZM444.7 214.8C445.4 214.3 446.2 213.8 446.9 213.4V216.8C446.2 217.3 445.4 217.8 444.7 218.2V214.8ZM444.7 219.9C445.4 219.4 446.2 219 446.9 218.5V221.5C446.2 221.9 445.4 222.2 444.7 222.6V219.9ZM444.7 224.2C445.4 223.8 446.2 223.5 446.9 223.1V226.8C446.2 227.2 445.4 227.6 444.7 227.9V224.2ZM444.7 229.6C445.4 229.2 446.2 228.8 446.9 228.5V240.2L444.7 240.3V229.6ZM442 216.5C442.7 216.1 443.5 215.6 444.2 215.1V218.5C443.5 219 442.7 219.4 442 219.9V216.5ZM442 221.5C442.7 221.1 443.5 220.6 444.2 220.2V222.8C443.5 223.2 442.7 223.5 442 223.8V221.5V221.5ZM442 225.4C442.7 225.1 443.5 224.7 444.2 224.4V228.2C443.5 228.6 442.7 228.9 442 229.3V225.4ZM395.9 235.4H396.9C396.6 235.4 396.2 235.5 395.9 235.4ZM393.2 233.6C393.9 233.5 394.7 233.4 395.4 233.3V233.9C394.6 233.9 393.9 233.9 393.2 233.8V233.6ZM393.2 235.4C393.9 235.4 394.7 235.4 395.4 235.5V235.7C394.7 235.8 393.9 235.8 393.2 235.9V235.4V235.4ZM393.2 237.3C393.9 237.2 394.7 237.2 395.4 237.1V239.6C394.6 239.6 393.9 239.5 393.2 239.5V237.3V237.3ZM393.2 240.9C393.9 240.9 394.7 241 395.4 241V241.7L393.2 241.8V240.9V240.9ZM392.7 233.7V233.9C392.3 233.9 391.8 233.9 391.4 233.8C391.8 233.8 392.3 233.7 392.7 233.7ZM390.5 235.2C391.2 235.2 392 235.3 392.7 235.3V235.8C391.9 235.8 391.2 235.9 390.5 235.9V235.2ZM390.5 237.4C391.2 237.4 392 237.3 392.7 237.3V239.4C391.9 239.4 391.2 239.3 390.5 239.2V237.4ZM390.5 240.7C391.2 240.8 392 240.8 392.7 240.9V241.8L390.5 241.9V240.7ZM387.8 235C388.5 235.1 389.3 235.1 390 235.2V236C389.2 236 388.5 236 387.8 236.1V235V235ZM387.8 237.5C388.5 237.5 389.3 237.5 390 237.4V239.2C389.2 239.1 388.5 239.1 387.8 239V237.5V237.5ZM387.8 240.4C388.5 240.5 389.3 240.6 390 240.6V241.8L387.8 241.9V240.4V240.4ZM385.1 234.7C385.8 234.8 386.6 234.9 387.3 234.9V235.9H385.1V234.7ZM385.1 237.5H387.3V238.9C386.5 238.8 385.8 238.7 385.1 238.6V237.5ZM385.1 240.1C385.8 240.2 386.6 240.3 387.3 240.4V242L385.1 242.1V240.1ZM382.4 234.4C383.1 234.5 383.9 234.6 384.6 234.7V236C383.8 236 383.1 236 382.4 235.9V234.4V234.4ZM382.4 237.4C383.1 237.4 383.9 237.5 384.6 237.5V238.6C383.8 238.5 383.1 238.4 382.4 238.2V237.4V237.4ZM382.4 239.6C383.1 239.7 383.9 239.9 384.6 240V242L382.4 242.1V239.6ZM379.6 234.2H381.5C381.6 234.2 381.7 234.2 381.9 234.3V235.9C381.1 235.9 380.4 235.8 379.7 235.8L379.6 234.2V234.2ZM379.6 237.2C380.3 237.3 381.1 237.3 381.8 237.3V238C381 237.9 380.3 237.7 379.6 237.6V237.2V237.2ZM379.6 239.1C380.3 239.3 381.1 239.4 381.8 239.5V242.1L379.6 242.2V239.1ZM376.9 234.1C377.6 234.1 378.4 234.2 379.1 234.2V235.8C378.3 235.7 377.6 235.7 376.9 235.6V234.1ZM376.9 237C377.6 237.1 378.4 237.1 379.1 237.2V237.5C378.9 237.5 378.7 237.4 378.4 237.4C378 237.3 377.5 237.1 376.9 237ZM376.9 238.5L378.1 238.8C378.4 238.9 378.8 238.9 379.1 239V242.2L376.9 242.3V238.5V238.5ZM374.2 233.9C374.9 234 375.7 234 376.4 234.1V235.5C375.6 235.4 374.9 235.3 374.2 235.2V233.9V233.9ZM374.2 237.8C374.9 238 375.7 238.2 376.4 238.4V242.3L374.2 242.4V237.8ZM371.5 233.7C372.2 233.8 373 233.8 373.7 233.9V235.2C372.9 235.1 372.2 235 371.5 234.9V233.7ZM371.5 237C372.2 237.2 373 237.4 373.7 237.7V242.4L371.5 242.5V237V237ZM368.8 231.4C369.5 231.6 370.3 231.8 371 232V232.1C370.2 232 369.5 231.9 368.8 231.8V231.4V231.4ZM368.8 233.3C369.5 233.4 370.3 233.5 371 233.6V234.8C370.2 234.7 369.5 234.5 368.8 234.4V233.3ZM368.8 236.1C369.5 236.3 370.3 236.6 371 236.8V242.4L368.8 242.5V236.1V236.1ZM366.1 230.6C366.8 230.8 367.6 231.1 368.3 231.3V231.9C367.5 231.8 366.8 231.7 366.1 231.6V230.6V230.6ZM366.1 232.9C366.8 233 367.6 233.1 368.3 233.2V234.2C368 234.1 367.8 234.1 367.5 234C367 233.8 366.5 233.6 366.1 233.5V232.9V232.9ZM366.1 235.3C366.4 235.4 366.8 235.4 367.1 235.5C367.5 235.6 367.9 235.8 368.3 235.9V242.4L366.1 242.5V235.3ZM363.4 229.7C364.1 230 364.9 230.2 365.6 230.5V231.5H365.5C364.8 231.4 364.1 231.2 363.4 231.1V229.7V229.7ZM363.4 232.5L365.2 232.8C365.3 232.8 365.5 232.8 365.6 232.9V233.5C364.8 233.1 364.1 232.8 363.4 232.5ZM363.4 234.7C364.1 234.9 364.8 235 365.5 235.2H365.7V242.6L363.5 242.7V234.7H363.4ZM360.7 228.7C361.4 229 362.2 229.3 362.9 229.5V230.9C362.1 230.8 361.4 230.6 360.7 230.4V228.7V228.7ZM360.7 234C361.4 234.2 362.2 234.4 362.9 234.6V242.7L360.7 242.8V234V234ZM357.9 227.6C358.6 227.9 359.4 228.2 360.1 228.5V230.4C359.3 230.2 358.6 230.1 357.9 229.9V227.6ZM357.9 233.2C358.6 233.4 359.4 233.6 360.1 233.8V242.7L357.9 242.8V233.2ZM355.2 226.4C355.9 226.7 356.7 227.1 357.4 227.4V229.7C357.2 229.6 357 229.6 356.8 229.5C356.3 229.2 355.7 228.9 355.2 228.7V226.4V226.4ZM355.2 230.6C355.6 230.7 355.9 230.8 356.3 230.9C356.7 231.1 357.1 231.3 357.4 231.5V231.6C356.6 231.4 355.9 231.1 355.2 230.9V230.6V230.6ZM355.2 232.4C355.9 232.6 356.7 232.9 357.4 233.1V242.8L355.2 242.9V232.4V232.4ZM352.5 225.1C353.2 225.5 354 225.8 354.7 226.2V228.4C353.9 228 353.2 227.6 352.5 227.2V225.1ZM352.5 229.8C353.2 230 354 230.2 354.7 230.5V230.7C353.9 230.4 353.2 230.2 352.5 229.9V229.8V229.8ZM352.5 231.4C353.2 231.7 354 231.9 354.7 232.2V242.9L352.5 243V231.4ZM349.8 223.7C350.5 224.1 351.2 224.5 352 224.8V226.8C351.2 226.3 350.5 225.9 349.8 225.4V223.7ZM352 229.6C351.6 229.5 351.2 229.4 350.8 229.2C351.3 229.4 351.7 229.5 352 229.6ZM349.8 227.2C350 227.3 350.2 227.4 350.4 227.6C350.2 227.5 350 227.5 349.8 227.4V227.2V227.2ZM349.8 230.4C350.5 230.7 351.3 231 352 231.3V243L349.8 243.1V230.4V230.4ZM347.1 222.2C347.8 222.6 348.5 223 349.3 223.4V225.2C348.5 224.7 347.7 224.2 347.1 223.7V222.2ZM347.1 225.5C347.8 226 348.5 226.4 349.3 226.9V227.2C348.5 226.9 347.8 226.7 347.1 226.4V225.5ZM347.1 229.3C347.8 229.6 348.6 229.9 349.3 230.2V243.1L347.1 243.2V229.3ZM344.3 220.6C344.9 221 345.7 221.5 346.6 222V223.5C345.7 222.9 345 222.3 344.3 221.9V220.6ZM344.3 223.6C345 224.1 345.7 224.6 346.6 225.2V226.3C345.8 226 345.1 225.7 344.3 225.4V223.6V223.6ZM344.3 228C345 228.3 345.8 228.7 346.6 229V243.1L344.3 243.2V228V228ZM396.9 253.7H390.8V251.6H376V253.7H371.9V269.8H365.3V265.6H352V258.6H344.3V250L396.8 249.5V253.7H396.9V253.7ZM398.2 241.6L396 241.7V241H398.2V241.6ZM398.2 239.6H396V237C396.7 236.9 397.5 236.8 398.2 236.8V239.6V239.6ZM398.2 234H396V233.3C396.7 233.2 397.5 233.1 398.2 233V234V234ZM400.9 241.5L398.7 241.6V241.1H400.9V241.5ZM400.9 239.6H398.7V236.7C399.4 236.6 400.2 236.5 400.9 236.4V239.6V239.6ZM400.9 233.9C400.1 233.9 399.4 234 398.7 234V233C399.4 232.9 400.2 232.8 400.9 232.6V233.9ZM403.6 241.4L401.4 241.5V241C402.1 241 402.9 240.9 403.6 240.9V241.4ZM403.6 239.5C402.8 239.5 402.1 239.6 401.4 239.6V236.4C402.1 236.3 402.9 236.2 403.6 236V239.5ZM403.6 233.7C402.8 233.8 402.1 233.8 401.4 233.8V232.4C402.1 232.3 402.9 232.1 403.6 232V233.7V233.7ZM406.3 241.4L404.1 241.5V241C404.8 241 405.6 240.9 406.3 240.8V241.4ZM406.3 239.3C405.5 239.4 404.8 239.4 404.1 239.5V236C404.8 235.9 405.6 235.7 406.3 235.6V239.3V239.3ZM406.3 233.5C405.5 233.6 404.8 233.6 404.1 233.7V231.9C404.8 231.7 405.6 231.6 406.3 231.4V233.5V233.5ZM409 241.3L406.8 241.4V240.8C407.5 240.7 408.3 240.7 409 240.6V241.3ZM409 239C408.2 239.1 407.5 239.2 406.8 239.2V235.4C407 235.4 407.2 235.3 407.4 235.3C407.9 235.2 408.5 235.1 409 234.9V239V239ZM409 233.2C408.2 233.3 407.5 233.4 406.8 233.4V231.2H406.9C407.6 231 408.3 230.8 409 230.7V233.2V233.2ZM411.7 241.2L409.5 241.3V240.5C410.2 240.4 411 240.3 411.7 240.2V241.2V241.2ZM411.7 238.6C410.9 238.7 410.2 238.8 409.5 238.9V234.8C409.9 234.7 410.3 234.6 410.8 234.5C411.1 234.5 411.4 234.4 411.8 234.4L411.7 238.6ZM411.7 232.7C411.2 232.8 410.7 233 410.3 233.1C410 233.1 409.8 233.2 409.5 233.2V230.6C410.2 230.4 411 230.2 411.7 230V232.7ZM412.6 241.2H412.2V240.1C412.3 240.1 412.5 240.1 412.6 240V241.2ZM414.4 238.2C413.6 238.3 412.9 238.4 412.2 238.6V234.3C412.9 234.2 413.7 234.1 414.4 233.9V238.2ZM414.4 231.9C413.7 232.1 412.9 232.3 412.2 232.5V229.7C412.9 229.5 413.7 229.3 414.4 229V231.9ZM417.1 237.7C416.4 237.9 415.6 238 414.9 238.1V233.8C415.6 233.7 416.4 233.5 417.1 233.4V237.7ZM417.1 231.1C416.4 231.3 415.6 231.6 414.9 231.8V229C415.6 228.8 416.4 228.5 417.1 228.3V231.1V231.1ZM419.8 239.4L417.6 239.2V239.1C418 239 418.5 238.9 418.9 238.8C419.2 238.7 419.5 238.7 419.9 238.6L419.8 239.4V239.4ZM419.8 237.1C419.1 237.3 418.3 237.4 417.6 237.6V233.3C418.3 233.1 419.1 233 419.8 232.8V237.1ZM419.8 230.2C419.1 230.5 418.3 230.7 417.6 231V228.1C418.3 227.8 419.1 227.6 419.8 227.3V230.2ZM422.6 239.6L420.4 239.4V238.5C421.1 238.3 421.9 238.1 422.6 238V239.6ZM422.6 236.4C421.9 236.6 421.1 236.8 420.4 237V232.8C420.9 232.7 421.3 232.6 421.8 232.5C422.1 232.4 422.3 232.4 422.6 232.3V236.4ZM422.6 229.2C421.9 229.5 421.1 229.8 420.4 230V227C421.1 226.7 421.9 226.4 422.6 226.1V229.2ZM425.3 240.8L423.1 240.9V237.9C423.8 237.7 424.6 237.5 425.3 237.3V240.8ZM425.3 235.7C424.6 235.9 423.8 236.1 423.1 236.3V232.1C423.8 231.9 424.6 231.7 425.3 231.5V235.7ZM425.3 230C424.8 230.1 424.3 230.3 423.8 230.4L425.3 229.8V230ZM425.3 228.2C424.6 228.5 423.8 228.8 423.1 229.1V226.1C423.8 225.8 424.6 225.5 425.3 225.2V228.2ZM428 240.7L425.8 240.8V237.1C426.5 236.9 427.3 236.7 428 236.4V240.7V240.7ZM428 234.9C427.3 235.1 426.5 235.4 425.8 235.6V231.4C426.5 231.2 427.3 231 428 230.7V234.9ZM428 229.2C427.3 229.4 426.5 229.7 425.8 229.9V229.7C426.5 229.4 427.3 229.1 428 228.8V229.2ZM428 227C427.3 227.3 426.5 227.6 425.8 227.9V224.8C426.5 224.5 427.3 224.1 428 223.8V227ZM430.7 240.6L428.5 240.7V236.3C429.2 236.1 430 235.8 430.7 235.6V240.6ZM430.7 234C430 234.3 429.2 234.5 428.5 234.7V230.6C429.2 230.4 430 230.1 430.7 229.9V234ZM430.7 228.3C430 228.6 429.2 228.8 428.5 229V228.4C429.2 228.1 430 227.7 430.7 227.4V228.3ZM430.7 225.8C430 226.1 429.2 226.5 428.5 226.8V223.6C429.2 223.3 430 222.9 430.7 222.5V225.8V225.8ZM433.4 240.6L431.2 240.7V235.5C431.9 235.2 432.7 235 433.4 234.7V240.6ZM433.4 233C432.7 233.3 431.9 233.6 431.2 233.8V229.7C431.9 229.4 432.7 229.2 433.4 228.9V233ZM433.4 227.3C432.7 227.6 431.9 227.8 431.2 228.1V227.2C431.9 226.9 432.7 226.5 433.4 226.1V227.3ZM433.4 224.5C432.7 224.9 431.9 225.2 431.2 225.6V222.4C431.9 222 432.7 221.7 433.4 221.3V224.5ZM436.1 240.5L433.9 240.6V234.4C434.6 234.1 435.4 233.8 436.1 233.5V240.5ZM436.1 231.9C435.4 232.2 434.6 232.5 433.9 232.8V228.7C434.6 228.4 435.4 228.1 436.1 227.9V231.9ZM436.1 226.3C435.4 226.6 434.6 226.9 433.9 227.1V225.8C434.6 225.4 435.4 225.1 436.1 224.7V226.3ZM436.1 223.1C435.4 223.5 434.6 223.9 433.9 224.2V221C434.6 220.6 435.4 220.2 436.1 219.8V223.1V223.1ZM438.8 240.4L436.6 240.5V233.4C437.3 233.1 438.1 232.8 438.8 232.5V240.4ZM438.8 230.8C438.1 231.1 437.3 231.4 436.6 231.7V227.7C437.3 227.4 438.1 227.1 438.8 226.8V230.8ZM438.8 225.2C438.1 225.5 437.3 225.8 436.6 226.1V224.5C437.3 224.1 438.1 223.7 438.8 223.3V225.2V225.2ZM438.8 221.7C438.1 222.1 437.3 222.5 436.6 222.9V219.6C437.3 219.2 438.1 218.8 438.8 218.4V221.7ZM441.5 240.3L439.3 240.4V232.2C440 231.9 440.8 231.5 441.5 231.2V240.3ZM441.5 229.5C440.8 229.8 440 230.2 439.3 230.5V226.6C440 226.3 440.8 226 441.5 225.6V229.5ZM441.5 224C440.8 224.3 440 224.7 439.3 225V223C440 222.6 440.8 222.2 441.5 221.7V224ZM441.5 220.1C440.8 220.5 440 221 439.3 221.4V218.1C440 217.7 440.8 217.2 441.5 216.8V220.1ZM442 230.9C442.7 230.6 443.5 230.2 444.2 229.8V240.2L442 240.3V230.9ZM454.9 269.9H451.5V252.6H442V249.1L454.9 249V269.9V269.9ZM454.9 239.9L452.8 240V225.2L454.9 224V239.9ZM454.9 222.3C454.2 222.7 453.5 223.1 452.8 223.6V220L454.9 218.8V222.3V222.3ZM454.9 217.1L452.8 218.3V214.5L454.9 213V217.1V217.1ZM454.9 211.2L452.8 212.7V209.3L454.9 207.8V211.2ZM461.4 216.8C461.7 217 462.1 217.1 462.4 217.3C461.5 218 460.5 218.6 459.6 219.2C459.8 218.2 460.5 217.3 461.4 216.8ZM465.9 239.6L459.6 239.8V221.1C461.1 220.1 462.6 219.1 464 218C464.5 218.2 465.1 218.5 465.7 218.7C465.9 219.1 465.9 219.6 465.9 220.1V239.6V239.6ZM476.3 239.3L470 239.5V220.6C471.9 221.4 474 222.2 476.3 223.1V239.3V239.3ZM476.3 221.5C474.2 220.7 472.2 219.9 470.4 219.2C470.9 218.2 471.9 217.5 473 217.5C473.6 217.7 474.3 217.9 474.9 218.1C475.7 218.8 476.3 219.8 476.3 221.1V221.5ZM482.4 239.1L479.3 239.2V224.1C480.3 224.5 481.3 224.8 482.4 225.2V239.1ZM482.4 223.7C481.3 223.3 480.3 223 479.3 222.6V219.5C480.3 219.8 481.3 220.1 482.4 220.5V223.7ZM482.4 219C481.3 218.7 480.3 218.3 479.3 218V214.2C480.3 214.6 481.3 215 482.4 215.5V219ZM482.4 213.9C481.3 213.5 480.3 213 479.3 212.6V209.3C480.1 209.7 481.1 210.2 482.4 210.8V213.9V213.9ZM485.4 239L482.8 239.1V225.4C483.6 225.7 484.5 226 485.4 226.3V239V239ZM485.4 224.7C484.5 224.4 483.7 224.1 482.8 223.8V220.6C483.6 220.9 484.5 221.1 485.4 221.4V224.7V224.7ZM485.4 219.9C484.5 219.6 483.7 219.4 482.8 219.1V215.6C483.6 215.9 484.5 216.3 485.4 216.6V219.9ZM485.4 215.2C484.5 214.9 483.7 214.5 482.8 214.2V211.2C483.6 211.6 484.4 212 485.4 212.4V215.2ZM488.4 238.9L485.8 239V226.4C486.6 226.7 487.5 226.9 488.4 227.2V238.9ZM488.4 225.7C487.5 225.4 486.7 225.2 485.8 224.9V221.6C486.6 221.9 487.5 222.1 488.4 222.4V225.7ZM488.4 220.8C487.5 220.5 486.7 220.3 485.8 220V216.8C486.6 217.1 487.5 217.5 488.4 217.8V220.8ZM488.4 216.3C487.5 216 486.7 215.6 485.8 215.3V212.5C486.6 212.9 487.5 213.3 488.4 213.7V216.3V216.3ZM491.5 238.8L488.9 238.9V227.3C489.7 227.6 490.6 227.8 491.5 228.1V238.8ZM491.5 226.6C490.6 226.3 489.8 226.1 488.9 225.8V222.4C489.7 222.6 490.6 222.9 491.5 223.1V226.6V226.6ZM491.5 221.7C490.6 221.4 489.8 221.2 488.9 221V218C489.7 218.3 490.6 218.6 491.5 219V221.7ZM491.5 217.5C490.6 217.2 489.8 216.9 488.9 216.5V213.9C489.7 214.3 490.6 214.6 491.5 215V217.5ZM494.5 238.7L491.9 238.8V228.2C492.3 228.3 492.6 228.4 493 228.5C493.5 228.6 494 228.8 494.5 228.9V238.7V238.7ZM494.5 227.5C494.1 227.4 493.8 227.3 493.4 227.2C492.9 227.1 492.4 226.9 491.9 226.8V223.4C492.7 223.6 493.6 223.9 494.5 224.1V227.5V227.5ZM494.5 222.6C493.6 222.4 492.8 222.1 491.9 221.9V219.2C492.7 219.5 493.6 219.8 494.5 220.1V222.6V222.6ZM494.5 218.6C493.6 218.3 492.8 218 491.9 217.7V215.3C492.7 215.7 493.6 216 494.5 216.4V218.6V218.6ZM497.5 238.7L494.9 238.8V229.2C495.7 229.4 496.6 229.7 497.5 229.9V238.7ZM497.5 228.4C496.6 228.2 495.8 227.9 494.9 227.7V224.3C495.7 224.5 496.6 224.8 497.5 225V228.4ZM497.5 223.5C496.6 223.3 495.8 223 494.9 222.8V220.4C495.7 220.7 496.6 221 497.5 221.3V223.5ZM497.5 219.7C496.6 219.4 495.8 219.1 494.9 218.8V216.6C495.7 216.9 496.6 217.3 497.5 217.7V219.7Z" fill="#3c87dd"/>
</g>
<defs>
<clipPath id="clip0_220_2">
<rect width="499.6" height="285.7" fill="white"/>
</clipPath>
</defs>
</svg>
